<svg xmlns="http://www.w3.org/2000/svg" width="800" height="502" viewBox="0 0 800 502"><rect width="100%" height="100%" fill="#ffffff"/><rect x="40" y="24" width="720" height="44" rx="8" fill="#2c5f8a"/><text x="400" y="53" fill="#ffffff" font-size="22" font-weight="700" text-anchor="middle" font-family="'Noto Sans KR', sans-serif">커튼월 단열 시공 단계별 체크리스트</text><rect x="40" y="68" width="720" height="52" fill="#2c5f8a"/><rect x="40" y="68" width="220" height="52" fill="#2c5f8a" stroke="#cccccc"/><text x="150" y="101" fill="#ffffff" font-size="18" font-weight="700" text-anchor="middle" font-family="'Noto Sans KR', sans-serif">기준</text><rect x="260" y="68" width="100" height="52" fill="#2c5f8a" stroke="#cccccc"/><text x="310" y="101" fill="#ffffff" font-size="17" font-weight="700" text-anchor="middle" font-family="'Noto Sans KR', sans-serif">설계 검토</text><rect x="360" y="68" width="100" height="52" fill="#2c5f8a" stroke="#cccccc"/><text x="410" y="101" fill="#ffffff" font-size="17" font-weight="700" text-anchor="middle" font-family="'Noto Sans KR', sans-serif">재단 준비</text><rect x="460" y="68" width="100" height="52" fill="#2c5f8a" stroke="#cccccc"/><text x="510" y="101" fill="#ffffff" font-size="17" font-weight="700" text-anchor="middle" font-family="'Noto Sans KR', sans-serif">시공 순서</text><rect x="560" y="68" width="100" height="52" fill="#2c5f8a" stroke="#cccccc"/><text x="610" y="101" fill="#ffffff" font-size="17" font-weight="700" text-anchor="middle" font-family="'Noto Sans KR', sans-serif">방화구획</text><rect x="660" y="68" width="100" height="52" fill="#2c5f8a" stroke="#cccccc"/><text x="710" y="101" fill="#ffffff" font-size="17" font-weight="700" text-anchor="middle" font-family="'Noto Sans KR', sans-serif">검수</text><rect x="40" y="120" width="720" height="52" fill="#ffffff" stroke="#cccccc"/><rect x="40" y="120" width="220" height="52" fill="#ffffff" stroke="#cccccc"/><text x="56" y="152" fill="#1a1a1a" font-size="16" font-weight="500" text-anchor="start" font-family="'Noto Sans KR', sans-serif">재단 정밀도 ±2mm 이내</text><rect x="260" y="120" width="100" height="52" fill="#ffffff" stroke="#cccccc"/><text x="310" y="154" fill="#e74c3c" font-size="24" font-weight="700" text-anchor="middle" font-family="'Noto Sans KR', sans-serif">◎</text><rect x="360" y="120" width="100" height="52" fill="#ffffff" stroke="#cccccc"/><text x="410" y="154" fill="#e74c3c" font-size="24" font-weight="700" text-anchor="middle" font-family="'Noto Sans KR', sans-serif">◎</text><rect x="460" y="120" width="100" height="52" fill="#ffffff" stroke="#cccccc"/><text x="510" y="154" fill="#e74c3c" font-size="24" font-weight="700" text-anchor="middle" font-family="'Noto Sans KR', sans-serif">○</text><rect x="560" y="120" width="100" height="52" fill="#ffffff" stroke="#cccccc"/><text x="610" y="154" fill="#f5a623" font-size="24" font-weight="700" text-anchor="middle" font-family="'Noto Sans KR', sans-serif">△</text><rect x="660" y="120" width="100" height="52" fill="#ffffff" stroke="#cccccc"/><text x="710" y="154" fill="#e74c3c" font-size="24" font-weight="700" text-anchor="middle" font-family="'Noto Sans KR', sans-serif">◎</text><rect x="40" y="172" width="720" height="52" fill="#f0f4f8" stroke="#cccccc"/><rect x="40" y="172" width="220" height="52" fill="#f0f4f8" stroke="#cccccc"/><text x="56" y="204" fill="#1a1a1a" font-size="16" font-weight="500" text-anchor="start" font-family="'Noto Sans KR', sans-serif">방화충전재 동시 시공</text><rect x="260" y="172" width="100" height="52" fill="#f0f4f8" stroke="#cccccc"/><text x="310" y="206" fill="#e74c3c" font-size="24" font-weight="700" text-anchor="middle" font-family="'Noto Sans KR', sans-serif">◎</text><rect x="360" y="172" width="100" height="52" fill="#f0f4f8" stroke="#cccccc"/><text x="410" y="206" fill="#e74c3c" font-size="24" font-weight="700" text-anchor="middle" font-family="'Noto Sans KR', sans-serif">○</text><rect x="460" y="172" width="100" height="52" fill="#f0f4f8" stroke="#cccccc"/><text x="510" y="206" fill="#e74c3c" font-size="24" font-weight="700" text-anchor="middle" font-family="'Noto Sans KR', sans-serif">◎</text><rect x="560" y="172" width="100" height="52" fill="#f0f4f8" stroke="#cccccc"/><text x="610" y="206" fill="#e74c3c" font-size="24" font-weight="700" text-anchor="middle" font-family="'Noto Sans KR', sans-serif">◎</text><rect x="660" y="172" width="100" height="52" fill="#f0f4f8" stroke="#cccccc"/><text x="710" y="206" fill="#e74c3c" font-size="24" font-weight="700" text-anchor="middle" font-family="'Noto Sans KR', sans-serif">○</text><rect x="40" y="224" width="720" height="52" fill="#ffffff" stroke="#cccccc"/><rect x="40" y="224" width="220" height="52" fill="#ffffff" stroke="#cccccc"/><text x="56" y="256" fill="#1a1a1a" font-size="16" font-weight="500" text-anchor="start" font-family="'Noto Sans KR', sans-serif">열화상 카메라 검사</text><rect x="260" y="224" width="100" height="52" fill="#ffffff" stroke="#cccccc"/><text x="310" y="258" fill="#f5a623" font-size="24" font-weight="700" text-anchor="middle" font-family="'Noto Sans KR', sans-serif">△</text><rect x="360" y="224" width="100" height="52" fill="#ffffff" stroke="#cccccc"/><text x="410" y="258" fill="#e74c3c" font-size="24" font-weight="700" text-anchor="middle" font-family="'Noto Sans KR', sans-serif">×</text><rect x="460" y="224" width="100" height="52" fill="#ffffff" stroke="#cccccc"/><text x="510" y="258" fill="#e74c3c" font-size="24" font-weight="700" text-anchor="middle" font-family="'Noto Sans KR', sans-serif">○</text><rect x="560" y="224" width="100" height="52" fill="#ffffff" stroke="#cccccc"/><text x="610" y="258" fill="#e74c3c" font-size="24" font-weight="700" text-anchor="middle" font-family="'Noto Sans KR', sans-serif">○</text><rect x="660" y="224" width="100" height="52" fill="#ffffff" stroke="#cccccc"/><text x="710" y="258" fill="#e74c3c" font-size="24" font-weight="700" text-anchor="middle" font-family="'Noto Sans KR', sans-serif">◎</text><rect x="40" y="276" width="720" height="52" fill="#f0f4f8" stroke="#cccccc"/><rect x="40" y="276" width="220" height="52" fill="#f0f4f8" stroke="#cccccc"/><text x="56" y="308" fill="#1a1a1a" font-size="16" font-weight="500" text-anchor="start" font-family="'Noto Sans KR', sans-serif">BIM 모델 사전 검증</text><rect x="260" y="276" width="100" height="52" fill="#f0f4f8" stroke="#cccccc"/><text x="310" y="310" fill="#e74c3c" font-size="24" font-weight="700" text-anchor="middle" font-family="'Noto Sans KR', sans-serif">◎</text><rect x="360" y="276" width="100" height="52" fill="#f0f4f8" stroke="#cccccc"/><text x="410" y="310" fill="#e74c3c" font-size="24" font-weight="700" text-anchor="middle" font-family="'Noto Sans KR', sans-serif">◎</text><rect x="460" y="276" width="100" height="52" fill="#f0f4f8" stroke="#cccccc"/><text x="510" y="310" fill="#e74c3c" font-size="24" font-weight="700" text-anchor="middle" font-family="'Noto Sans KR', sans-serif">○</text><rect x="560" y="276" width="100" height="52" fill="#f0f4f8" stroke="#cccccc"/><text x="610" y="310" fill="#e74c3c" font-size="24" font-weight="700" text-anchor="middle" font-family="'Noto Sans KR', sans-serif">○</text><rect x="660" y="276" width="100" height="52" fill="#f0f4f8" stroke="#cccccc"/><text x="710" y="310" fill="#f5a623" font-size="24" font-weight="700" text-anchor="middle" font-family="'Noto Sans KR', sans-serif">△</text><rect x="40" y="328" width="720" height="52" fill="#ffffff" stroke="#cccccc"/><rect x="40" y="328" width="220" height="52" fill="#ffffff" stroke="#cccccc"/><text x="56" y="360" fill="#1a1a1a" font-size="16" font-weight="500" text-anchor="start" font-family="'Noto Sans KR', sans-serif">현장 재단 최소화</text><rect x="260" y="328" width="100" height="52" fill="#ffffff" stroke="#cccccc"/><text x="310" y="362" fill="#e74c3c" font-size="24" font-weight="700" text-anchor="middle" font-family="'Noto Sans KR', sans-serif">◎</text><rect x="360" y="328" width="100" height="52" fill="#ffffff" stroke="#cccccc"/><text x="410" y="362" fill="#e74c3c" font-size="24" font-weight="700" text-anchor="middle" font-family="'Noto Sans KR', sans-serif">◎</text><rect x="460" y="328" width="100" height="52" fill="#ffffff" stroke="#cccccc"/><text x="510" y="362" fill="#f5a623" font-size="24" font-weight="700" text-anchor="middle" font-family="'Noto Sans KR', sans-serif">△</text><rect x="560" y="328" width="100" height="52" fill="#ffffff" stroke="#cccccc"/><text x="610" y="362" fill="#e74c3c" font-size="24" font-weight="700" text-anchor="middle" font-family="'Noto Sans KR', sans-serif">×</text><rect x="660" y="328" width="100" height="52" fill="#ffffff" stroke="#cccccc"/><text x="710" y="362" fill="#e74c3c" font-size="24" font-weight="700" text-anchor="middle" font-family="'Noto Sans KR', sans-serif">○</text><rect x="40" y="380" width="720" height="42" fill="#ffffff" stroke="#cccccc"/><text x="54" y="407" fill="#1a1a1a" font-size="16" font-weight="500" text-anchor="start" font-family="'Noto Sans KR', sans-serif">◎ 필수   ○ 권장   △ 조건부   × 불필요</text><rect x="40" y="422" width="720" height="46" fill="#f7f9fc" stroke="#cccccc"/><text x="54" y="450" fill="#4c5a67" font-size="14" font-weight="400" text-anchor="start" font-family="'Noto Sans KR', sans-serif">실제 체크 항목은 건물 규모, 커튼월 유형, 현장 여건에 따라 조정 필요</text></svg>